<svg width="202" height="34" viewBox="0 0 202 34" fill="none" xmlns="http://www.w3.org/2000/svg">
<path d="M9.8 33.36C7.61333 33.36 5.86667 32.9333 4.56 32.08C3.25333 31.2267 2.32 30.0133 1.76 28.44C1.2 26.84 0.92 24.9733 0.92 22.84V10.56C0.92 8.42667 1.2 6.6 1.76 5.08C2.34667 3.53333 3.28 2.36 4.56 1.56C5.86667 0.733332 7.61333 0.319999 9.8 0.319999C11.9867 0.319999 13.72 0.733332 15 1.56C16.28 2.38667 17.2 3.56 17.76 5.08C18.3467 6.6 18.64 8.42667 18.64 10.56V22.88C18.64 24.9867 18.3467 26.8267 17.76 28.4C17.2 29.9733 16.28 31.2 15 32.08C13.72 32.9333 11.9867 33.36 9.8 33.36ZM9.8 29.8C11 29.8 11.9067 29.56 12.52 29.08C13.1333 28.5733 13.5467 27.88 13.76 27C13.9733 26.0933 14.08 25.04 14.08 23.84V9.64C14.08 8.44 13.9733 7.41333 13.76 6.56C13.5467 5.68 13.1333 5.01333 12.52 4.56C11.9067 4.08 11 3.84 9.8 3.84C8.6 3.84 7.68 4.08 7.04 4.56C6.42667 5.01333 6.01333 5.68 5.8 6.56C5.58667 7.41333 5.48 8.44 5.48 9.64V23.84C5.48 25.04 5.58667 26.0933 5.8 27C6.01333 27.88 6.42667 28.5733 7.04 29.08C7.68 29.56 8.6 29.8 9.8 29.8ZM23.0825 33V0.599998H27.6025V29.76H35.8825V33H23.0825ZM38.9809 33V0.599998H51.5409V3.96H43.5009V14.68H50.0209V17.88H43.5009V29.76H51.6209V33H38.9809ZM62.99 33.4C60.9633 33.4 59.3367 32.9733 58.11 32.12C56.91 31.24 56.03 29.9733 55.47 28.32C54.9367 26.6667 54.67 24.68 54.67 22.36V11.52C54.67 9.14667 54.91 7.13333 55.39 5.48C55.8967 3.8 56.7767 2.52 58.03 1.64C59.31 0.759999 61.0833 0.319999 63.35 0.319999C65.3767 0.319999 67.0033 0.666666 68.23 1.36C69.4833 2.02667 70.39 3.06667 70.95 4.48C71.51 5.86667 71.79 7.62667 71.79 9.76V10.96H67.55V9.96C67.55 8.54667 67.4567 7.4 67.27 6.52C67.0833 5.61333 66.6967 4.94667 66.11 4.52C65.55 4.06667 64.6567 3.84 63.43 3.84C62.0967 3.84 61.1233 4.14667 60.51 4.76C59.9233 5.37333 59.55 6.21333 59.39 7.28C59.2567 8.32 59.19 9.50667 59.19 10.84V22.84C59.19 24.3867 59.2967 25.68 59.51 26.72C59.75 27.76 60.19 28.5333 60.83 29.04C61.47 29.5467 62.3767 29.8 63.55 29.8C64.7233 29.8 65.63 29.52 66.27 28.96C66.91 28.4 67.35 27.5733 67.59 26.48C67.83 25.3867 67.95 24.0267 67.95 22.4V20.16H63.83V16.96H72.03V33H69.19L68.75 29.28C68.3233 30.48 67.6567 31.4667 66.75 32.24C65.8433 33.0133 64.59 33.4 62.99 33.4ZM79.7963 33.32C78.8896 33.32 78.0896 33.0667 77.3963 32.56C76.7029 32.0267 76.1563 31.36 75.7563 30.56C75.3563 29.7333 75.1563 28.8667 75.1563 27.96C75.1563 26.52 75.3963 25.3067 75.8763 24.32C76.3563 23.3333 77.0096 22.5067 77.8363 21.84C78.6896 21.1467 79.6629 20.5467 80.7563 20.04C81.8763 19.5333 83.0496 19.04 84.2763 18.56V16.92C84.2763 15.9867 84.2229 15.2133 84.1163 14.6C84.0096 13.9867 83.7829 13.5333 83.4363 13.24C83.1163 12.92 82.6229 12.76 81.9563 12.76C81.3696 12.76 80.8896 12.8933 80.5163 13.16C80.1696 13.4267 79.9163 13.8133 79.7563 14.32C79.5963 14.8 79.5163 15.3733 79.5163 16.04V17.2L75.2763 17.04C75.3296 14.48 75.9163 12.6 77.0363 11.4C78.1563 10.1733 79.8896 9.56 82.2363 9.56C84.5296 9.56 86.1563 10.1867 87.1163 11.44C88.0763 12.6933 88.5563 14.5067 88.5563 16.88V27.44C88.5563 28.16 88.5696 28.8533 88.5963 29.52C88.6496 30.1867 88.7029 30.8133 88.7563 31.4C88.8363 31.96 88.9029 32.4933 88.9563 33H85.0363C84.9563 32.5733 84.8496 32.04 84.7162 31.4C84.6096 30.7333 84.5296 30.1333 84.4763 29.6C84.2096 30.5067 83.6896 31.36 82.9163 32.16C82.1696 32.9333 81.1296 33.32 79.7963 33.32ZM81.4763 29.64C81.9029 29.64 82.3029 29.52 82.6763 29.28C83.0496 29.04 83.3829 28.7733 83.6763 28.48C83.9696 28.16 84.1696 27.9067 84.2763 27.72V21.16C83.6096 21.5333 82.9829 21.9067 82.3963 22.28C81.8096 22.6533 81.2896 23.0533 80.8363 23.48C80.4096 23.88 80.0629 24.3467 79.7963 24.88C79.5563 25.3867 79.4362 25.9733 79.4362 26.64C79.4362 27.5733 79.6096 28.3067 79.9563 28.84C80.3029 29.3733 80.8096 29.64 81.4763 29.64ZM98.8044 33.32C97.6044 33.32 96.631 33.0933 95.8844 32.64C95.1644 32.1867 94.631 31.5467 94.2844 30.72C93.9644 29.8933 93.8044 28.92 93.8044 27.8V12.72H91.3644V9.88H93.8044V3.12H98.0844V9.88H101.804V12.72H98.0844V27.52C98.0844 28.4267 98.231 29.08 98.5244 29.48C98.8177 29.8533 99.3777 30.04 100.204 30.04C100.418 30.04 100.658 30.0267 100.924 30C101.218 29.9733 101.498 29.9467 101.764 29.92V33.08C101.231 33.16 100.738 33.2133 100.284 33.24C99.831 33.2933 99.3377 33.32 98.8044 33.32ZM111.309 33.32C109.602 33.32 108.256 32.9733 107.269 32.28C106.282 31.5867 105.576 30.6 105.149 29.32C104.749 28.04 104.549 26.5333 104.549 24.8V18.08C104.549 16.3467 104.749 14.84 105.149 13.56C105.576 12.28 106.282 11.2933 107.269 10.6C108.256 9.90667 109.602 9.56 111.309 9.56C113.016 9.56 114.349 9.90667 115.309 10.6C116.296 11.2933 116.989 12.28 117.389 13.56C117.816 14.84 118.029 16.3467 118.029 18.08V24.8C118.029 26.5333 117.816 28.04 117.389 29.32C116.989 30.6 116.296 31.5867 115.309 32.28C114.349 32.9733 113.016 33.32 111.309 33.32ZM111.309 30.16C112.136 30.16 112.709 29.92 113.029 29.44C113.376 28.96 113.576 28.3333 113.629 27.56C113.709 26.76 113.749 25.9333 113.749 25.08V17.84C113.749 16.96 113.709 16.1333 113.629 15.36C113.576 14.5867 113.376 13.96 113.029 13.48C112.709 12.9733 112.136 12.72 111.309 12.72C110.482 12.72 109.896 12.9733 109.549 13.48C109.202 13.96 108.989 14.5867 108.909 15.36C108.856 16.1333 108.829 16.96 108.829 17.84V25.08C108.829 25.9333 108.856 26.76 108.909 27.56C108.989 28.3333 109.202 28.96 109.549 29.44C109.896 29.92 110.482 30.16 111.309 30.16ZM122.061 33V9.88H126.341V13.16C127.195 11.7467 128.048 10.8 128.901 10.32C129.755 9.84 130.608 9.6 131.461 9.6C131.568 9.6 131.661 9.6 131.741 9.6C131.848 9.6 131.981 9.61333 132.141 9.64V14.36C131.821 14.2267 131.448 14.12 131.021 14.04C130.621 13.9333 130.208 13.88 129.781 13.88C129.115 13.88 128.501 14.04 127.941 14.36C127.408 14.6533 126.875 15.24 126.341 16.12V33H122.061ZM135.153 33V0.599998H141.673C143.833 0.599998 145.619 0.893331 147.033 1.48C148.446 2.04 149.486 2.96 150.153 4.24C150.846 5.49333 151.193 7.14666 151.193 9.2C151.193 10.4533 151.059 11.6 150.793 12.64C150.526 13.6533 150.099 14.52 149.513 15.24C148.926 15.9333 148.153 16.44 147.193 16.76L151.793 33H147.433L143.193 17.8H139.673V33H135.153ZM139.673 14.56H141.393C142.673 14.56 143.713 14.4 144.513 14.08C145.313 13.76 145.899 13.2133 146.273 12.44C146.646 11.6667 146.833 10.5867 146.833 9.2C146.833 7.30667 146.486 5.94667 145.793 5.12C145.099 4.26667 143.726 3.84 141.673 3.84H139.673V14.56ZM155.895 33V0.599998H163.335C164.802 0.599998 166.068 0.759998 167.135 1.08C168.228 1.4 169.135 1.89333 169.855 2.56C170.575 3.22666 171.108 4.08 171.455 5.12C171.802 6.13333 171.975 7.33333 171.975 8.72C171.975 10.0533 171.802 11.2133 171.455 12.2C171.135 13.16 170.628 13.92 169.935 14.48C169.268 15.04 168.402 15.4 167.335 15.56C168.642 15.8533 169.695 16.36 170.495 17.08C171.295 17.7733 171.882 18.68 172.255 19.8C172.655 20.8933 172.855 22.2133 172.855 23.76C172.855 25.1467 172.695 26.4133 172.375 27.56C172.055 28.7067 171.548 29.68 170.855 30.48C170.188 31.28 169.322 31.9067 168.255 32.36C167.215 32.7867 165.975 33 164.535 33H155.895ZM160.415 29.76H163.455C165.482 29.76 166.828 29.2933 167.495 28.36C168.188 27.4 168.535 25.8667 168.535 23.76C168.535 22.4 168.348 21.2667 167.975 20.36C167.628 19.4267 167.055 18.7333 166.255 18.28C165.482 17.8 164.428 17.56 163.095 17.56H160.415V29.76ZM160.415 14.12H163.095C164.375 14.12 165.375 13.9467 166.095 13.6C166.815 13.2267 167.322 12.64 167.615 11.84C167.908 11.04 168.055 10 168.055 8.72C168.055 7.22666 167.828 6.14667 167.375 5.48C166.922 4.81333 166.215 4.4 165.255 4.24C164.295 4.05333 163.042 3.96 161.495 3.96H160.415V14.12ZM180.993 33L175.713 0.599998H179.473L182.953 23.88L187.313 0.719998H190.513L194.913 24L198.313 0.599998H201.993L196.793 33H193.513L188.993 9L184.433 33H180.993Z" fill="#2C6A3D"/>
</svg>
