<svg width="189" height="30" viewBox="0 0 189 30" fill="none" xmlns="http://www.w3.org/2000/svg">
<path d="M8.552 29.576C6.984 29.576 5.608 29.384 4.424 29C3.24 28.648 2.312 27.896 1.64 26.744C1 25.56 0.68 23.816 0.68 21.512V6.632C0.68 4.936 1 3.624 1.64 2.696C2.312 1.768 3.24 1.128 4.424 0.776C5.64 0.391999 7.032 0.199999 8.6 0.199999C10.136 0.199999 11.496 0.391999 12.68 0.776C13.896 1.16 14.84 1.816 15.512 2.744C16.216 3.672 16.568 4.968 16.568 6.632V21.464C16.568 23.8 16.216 25.56 15.512 26.744C14.84 27.896 13.896 28.648 12.68 29C11.496 29.384 10.12 29.576 8.552 29.576ZM8.552 26.312C9.032 26.312 9.448 26.232 9.8 26.072C10.184 25.912 10.472 25.64 10.664 25.256C10.888 24.84 11 24.28 11 23.576V6.392C11 5.688 10.888 5.144 10.664 4.76C10.472 4.344 10.184 4.056 9.8 3.896C9.448 3.736 9.032 3.656 8.552 3.656C8.072 3.656 7.656 3.736 7.304 3.896C6.952 4.056 6.664 4.344 6.44 4.76C6.248 5.144 6.152 5.688 6.152 6.392V23.576C6.152 24.28 6.248 24.84 6.44 25.256C6.664 25.64 6.952 25.912 7.304 26.072C7.656 26.232 8.072 26.312 8.552 26.312ZM19.3216 29V0.631999H24.8416V25.16H31.2736V29H19.3216ZM32.7054 29V0.631999H45.7614V4.568H38.5134V12.152H44.6574V16.52H38.5134V25.16H45.7614V29H32.7054ZM53.7286 29.528C52.6406 29.528 51.6166 29.352 50.6566 29C49.7286 28.648 48.9606 27.96 48.3526 26.936C47.7446 25.88 47.4406 24.312 47.4406 22.232V6.68C47.4406 5.016 47.7606 3.72 48.4006 2.792C49.0726 1.864 50.0006 1.224 51.1846 0.871999C52.3686 0.487998 53.7446 0.295998 55.3126 0.295998C56.8806 0.295998 58.2566 0.487998 59.4406 0.871999C60.6566 1.224 61.6006 1.864 62.2726 2.792C62.9766 3.72 63.3286 5.016 63.3286 6.68V10.664H57.9046V6.392C57.9046 5.624 57.7926 5.048 57.5686 4.664C57.3766 4.248 57.1046 3.976 56.7526 3.848C56.4006 3.72 55.9686 3.656 55.4566 3.656C54.9766 3.656 54.5446 3.72 54.1606 3.848C53.8086 3.976 53.5206 4.248 53.2966 4.664C53.1046 5.048 53.0086 5.624 53.0086 6.392V23.576C53.0086 24.312 53.1046 24.888 53.2966 25.304C53.5206 25.688 53.8086 25.96 54.1606 26.12C54.5446 26.248 54.9766 26.312 55.4566 26.312C56.1926 26.312 56.7846 26.088 57.2326 25.64C57.6806 25.192 57.9046 24.504 57.9046 23.576V17.912H55.6006V14.744H63.3286V29H59.1526L58.8646 26.792C58.8006 26.888 58.7366 26.984 58.6726 27.08C58.6086 27.176 58.5606 27.256 58.5286 27.32C58.2086 27.864 57.6646 28.376 56.8966 28.856C56.1606 29.304 55.1046 29.528 53.7286 29.528ZM69.9736 29.384C69.1416 29.384 68.3576 29.272 67.6216 29.048C66.9176 28.824 66.3256 28.36 65.8456 27.656C65.3976 26.92 65.1736 25.848 65.1736 24.44V21.272C65.1736 19.768 65.6056 18.552 66.4696 17.624C67.3656 16.664 68.7576 15.848 70.6456 15.176C71.6376 14.76 72.4216 14.392 72.9976 14.072C73.5736 13.752 73.9896 13.368 74.2456 12.92C74.5016 12.44 74.6296 11.8 74.6296 11V9.704C74.6296 9.192 74.5496 8.808 74.3896 8.552C74.2296 8.264 73.9896 8.056 73.6696 7.928C73.3816 7.8 73.0456 7.736 72.6616 7.736C71.8296 7.736 71.2856 8.024 71.0296 8.6C70.7736 9.144 70.6456 10.072 70.6456 11.384V13.4H65.7016V10.856C65.7016 9.672 65.8616 8.632 66.1816 7.736C66.5336 6.808 67.2056 6.088 68.1976 5.576C69.1896 5.032 70.6776 4.76 72.6616 4.76C74.6776 4.76 76.2296 4.952 77.3176 5.336C78.4056 5.688 79.1576 6.264 79.5736 7.064C79.9896 7.832 80.1976 8.888 80.1976 10.232V29H74.7256V26.36C74.4696 27.288 73.8776 28.024 72.9496 28.568C72.0536 29.112 71.0616 29.384 69.9736 29.384ZM72.3256 25.784C73.1896 25.784 73.7816 25.464 74.1016 24.824C74.4536 24.152 74.6296 23.224 74.6296 22.04V15.944C74.4376 16.264 74.1176 16.552 73.6696 16.808C73.2216 17.032 72.7736 17.288 72.3256 17.576C71.7176 17.992 71.2536 18.424 70.9336 18.872C70.6136 19.288 70.4536 19.88 70.4536 20.648V23.096C70.4536 23.768 70.5336 24.312 70.6936 24.728C70.8536 25.112 71.0776 25.384 71.3656 25.544C71.6536 25.704 71.9736 25.784 72.3256 25.784ZM89.5632 29.144C88.8272 29.144 88.0912 29.08 87.3552 28.952C86.6192 28.824 85.9632 28.584 85.3872 28.232C84.8112 27.848 84.3472 27.32 83.9952 26.648C83.6432 25.944 83.4672 25.016 83.4672 23.864V8.456H81.2112V5.72L83.9472 5.24L84.7152 0.871999H88.9392V5.24H93.4512V8.456H88.9392V22.904C88.9392 23.576 89.0672 24.184 89.3232 24.728C89.5792 25.24 90.1552 25.496 91.0512 25.496C91.4672 25.496 91.9472 25.48 92.4912 25.448C93.0352 25.384 93.3552 25.352 93.4512 25.352V28.664C93.3552 28.664 92.9072 28.744 92.1072 28.904C91.3392 29.064 90.4912 29.144 89.5632 29.144ZM101.871 29.384C100.271 29.384 98.8951 29.192 97.7431 28.808C96.6231 28.424 95.7751 27.672 95.1991 26.552C94.6231 25.4 94.3351 23.72 94.3351 21.512V11.432C94.3351 8.968 94.9591 7.256 96.2071 6.296C97.4551 5.304 99.3431 4.808 101.871 4.808C104.399 4.808 106.271 5.304 107.487 6.296C108.735 7.256 109.359 8.968 109.359 11.432V21.512C109.359 23.72 109.071 25.384 108.495 26.504C107.951 27.624 107.119 28.392 105.999 28.808C104.879 29.192 103.503 29.384 101.871 29.384ZM101.871 26.12C102.575 26.12 103.087 25.928 103.407 25.544C103.727 25.128 103.887 24.392 103.887 23.336V10.856C103.887 9.864 103.727 9.16 103.407 8.744C103.119 8.296 102.607 8.072 101.871 8.072C101.167 8.072 100.639 8.28 100.287 8.696C99.9671 9.112 99.8071 9.832 99.8071 10.856V23.336C99.8071 24.392 99.9671 25.128 100.287 25.544C100.639 25.928 101.167 26.12 101.871 26.12ZM111.572 29V5.24H116.228L116.708 8.072C116.996 7.368 117.428 6.808 118.004 6.392C118.58 5.944 119.188 5.64 119.828 5.48C120.884 5.032 121.988 4.92 123.14 5.144V9.368C123.076 9.336 122.82 9.304 122.372 9.272C121.956 9.208 121.476 9.208 120.932 9.272C120.388 9.304 119.924 9.432 119.54 9.656C118.74 9.944 118.116 10.44 117.668 11.144C117.252 11.848 117.044 12.696 117.044 13.688V29H111.572ZM124.352 29V0.631999H134.72C136.608 0.631999 138.032 1.064 138.992 1.928C139.952 2.76 140.432 3.928 140.432 5.432V9.848C140.432 11.352 140.032 12.616 139.232 13.64C138.432 14.664 137.184 15.256 135.488 15.416C136.576 15.576 137.344 15.944 137.792 16.52C138.272 17.064 138.688 17.96 139.04 19.208L141.728 29H135.536L133.472 19.592C133.28 18.824 133.056 18.184 132.8 17.672C132.576 17.128 132.24 16.856 131.792 16.856H130.16V29H124.352ZM130.16 12.968H132.464C133.36 12.968 134 12.728 134.384 12.248C134.768 11.736 134.96 10.936 134.96 9.848V6.44C134.96 5.416 134.784 4.696 134.432 4.28C134.08 3.864 133.536 3.656 132.8 3.656H130.16V12.968ZM143.548 29V0.631999H153.628C155.42 0.631999 156.78 1.064 157.708 1.928C158.668 2.76 159.148 3.928 159.148 5.432V8.648C159.148 9.48 159.02 10.248 158.764 10.952C158.54 11.624 158.188 12.2 157.708 12.68C157.356 13.032 156.908 13.304 156.364 13.496C155.82 13.688 155.292 13.8 154.78 13.832V13.88C155.324 13.88 155.852 13.944 156.364 14.072C156.876 14.2 157.356 14.456 157.804 14.84C158.348 15.256 158.78 15.832 159.1 16.568C159.42 17.272 159.58 18.152 159.58 19.208V23.096C159.58 24.632 159.308 25.832 158.764 26.696C158.252 27.56 157.5 28.168 156.508 28.52C155.548 28.84 154.396 29 153.052 29H143.548ZM149.164 26.072H151.756C152.236 26.072 152.62 25.992 152.908 25.832C153.228 25.64 153.468 25.304 153.628 24.824C153.82 24.344 153.916 23.64 153.916 22.712V19.352C153.916 18.072 153.692 17.24 153.244 16.856C152.828 16.44 152.268 16.232 151.564 16.232H149.164V26.072ZM149.164 12.728H151.42C152.156 12.728 152.732 12.472 153.148 11.96C153.596 11.448 153.82 10.552 153.82 9.272V6.44C153.82 5.448 153.628 4.744 153.244 4.328C152.892 3.88 152.428 3.656 151.852 3.656H149.164V12.728ZM165.016 29L160.696 0.631999H166.456L169.144 21.8L172.12 0.631999H176.728L179.656 21.8L182.392 0.631999H188.104L183.832 29H177.352L174.424 12.536L171.544 29H165.016Z" fill="#2C6A3D"/>
</svg>
